<svg width="68" height="66" viewBox="0 0 68 66" fill="none" xmlns="http://www.w3.org/2000/svg">
    <path d="M50.708 65.917C49.602 65.9168 48.5132 65.6437 47.538 65.122L34.001 57.835L20.468 65.12C18.274 66.29 15.524 66.132 13.504 64.747C11.429 63.317 10.358 60.815 10.773 58.37L13.424 42.532L1.984 31.108C0.225997 29.358 -0.369003 26.82 0.432997 24.485C1.231 22.171 3.25 20.507 5.704 20.143L21.266 17.83L28.025 3.797C29.114 1.541 31.46 0.0839996 34.001 0.0839996C36.544 0.0839996 38.889 1.542 39.975 3.797L46.736 17.83L62.296 20.144C64.748 20.507 66.769 22.169 67.568 24.482C67.9622 25.6201 68.0259 26.8466 67.7518 28.0195C67.4777 29.1923 66.8769 30.2635 66.019 31.109L54.575 42.532L57.229 58.372C57.64 60.817 56.569 63.319 54.5 64.745C53.3834 65.5097 52.0614 65.9183 50.708 65.917ZM34.001 53.563C34.327 53.563 34.653 53.643 34.949 53.801L49.429 61.596C49.8675 61.8249 50.3595 61.9318 50.8535 61.9054C51.3475 61.879 51.8253 61.7204 52.237 61.446C53.038 60.895 53.441 59.969 53.284 59.034L50.46 42.176C50.4075 41.8614 50.4309 41.5388 50.5284 41.2351C50.6258 40.9314 50.7943 40.6554 51.02 40.43L63.194 28.277C63.5182 27.9595 63.7458 27.5566 63.8504 27.115C63.955 26.6734 63.9323 26.2112 63.785 25.782C63.477 24.891 62.681 24.244 61.709 24.1L45.1 21.63C44.7771 21.5822 44.4709 21.456 44.208 21.2625C43.9451 21.069 43.7336 20.8141 43.592 20.52L36.371 5.533C35.947 4.652 35.017 4.084 34.001 4.084C32.985 4.084 32.054 4.653 31.627 5.534L24.41 20.52C24.2684 20.8141 24.0569 21.069 23.794 21.2625C23.5311 21.456 23.2249 21.5822 22.902 21.63L6.292 24.1C5.334 24.243 4.52 24.904 4.215 25.787C3.915 26.66 4.143 27.614 4.808 28.276L16.98 40.43C17.438 40.887 17.646 41.537 17.54 42.176L14.718 59.033C14.56 59.969 14.963 60.892 15.771 61.449C16.575 62 17.694 62.066 18.58 61.594L33.054 53.801C33.349 53.643 33.675 53.563 34.001 53.563Z" fill="#E632AC"/>
    <path d="M12.085 29.118C11.8357 29.1147 11.5965 29.0185 11.4144 28.8481C11.2322 28.6777 11.1203 28.4455 11.1004 28.1969C11.0805 27.9483 11.1541 27.7013 11.3068 27.5041C11.4595 27.3069 11.6803 27.1739 11.926 27.131L12.59 27.023C12.7197 27.0012 12.8525 27.0053 12.9806 27.0352C13.1087 27.065 13.2296 27.12 13.3362 27.197C13.4429 27.2739 13.5333 27.3712 13.6021 27.4833C13.6709 27.5954 13.7167 27.72 13.737 27.85C13.7794 28.1118 13.7161 28.3797 13.561 28.5948C13.4059 28.8098 13.1718 28.9545 12.91 28.997L12.246 29.105C12.1928 29.1138 12.139 29.1181 12.085 29.118ZM15.757 28.522C15.5083 28.5218 15.2686 28.4289 15.0847 28.2614C14.9008 28.094 14.7859 27.864 14.7624 27.6164C14.7389 27.3688 14.8085 27.1214 14.9577 26.9223C15.1068 26.7233 15.3248 26.587 15.569 26.54L26.392 24.452L30.474 15.09C30.58 14.8468 30.7782 14.6556 31.0251 14.5586C31.272 14.4615 31.5473 14.4665 31.7905 14.5725C32.0337 14.6785 32.2249 14.8767 32.3219 15.1236C32.419 15.3705 32.414 15.6458 32.308 15.889L28.015 25.734C27.9501 25.8828 27.8498 26.0136 27.723 26.115C27.5961 26.2164 27.4465 26.2854 27.287 26.316L15.947 28.504C15.8845 28.5164 15.8208 28.5224 15.757 28.522Z" fill="#E632AC"/>
</svg>
